<svg width="393" height="210" viewBox="0 0 393 210" fill="none" xmlns="http://www.w3.org/2000/svg">
<path fill-rule="evenodd" clip-rule="evenodd" d="M380.436 165.883V158.53H373V99.2792C373.195 99.1468 373.321 98.9197 373.321 98.6625C373.321 98.3105 373.08 98.0082 372.763 97.933V96.0138V95.6362L372.775 95.546C372.768 95.4858 372.763 95.4332 372.763 95.376V94.4465H373.067C373.272 94.4465 373.439 94.272 373.439 94.0645C373.439 93.8524 373.27 93.6824 373.067 93.6824H372.654C372.859 93.0552 373.107 91.8565 372.589 90.6396C372.348 90.0696 371.863 89.5356 371.312 89.0709C370.776 88.6091 370.178 88.2135 369.688 87.9293C369.715 87.8541 369.736 87.7548 369.744 87.642C369.744 87.5096 369.732 87.3592 369.667 87.2043V87.1998C369.601 87.0403 369.459 86.8974 369.305 86.7696C369.163 86.6568 369.006 86.562 368.893 86.5019L368.881 86.2296C368.914 86.2071 368.936 86.177 368.958 86.1424C368.977 86.1003 368.991 86.0477 368.991 85.995C368.991 85.9424 368.972 85.8927 368.951 85.8431C368.929 85.8055 368.895 85.7709 368.864 85.7453L368.853 85.5227C368.853 85.5227 368.893 85.4776 368.911 85.4475C368.926 85.4174 368.938 85.3753 368.938 85.3347C368.938 85.2926 368.919 85.2475 368.904 85.2144C368.885 85.1843 368.864 85.1572 368.834 85.1316L368.823 84.894L368.743 83.05C368.743 83.05 368.724 83.0079 368.702 83.0079C368.68 83.0033 368.662 83.0199 368.659 83.05L368.582 84.894L368.57 85.1316C368.57 85.1316 368.519 85.1843 368.5 85.2144C368.474 85.249 368.464 85.2941 368.464 85.3347C368.464 85.3768 368.476 85.4174 368.497 85.4475C368.512 85.4776 368.531 85.5002 368.531 85.5002L368.545 85.7453C368.505 85.7724 368.473 85.8055 368.454 85.8431C368.428 85.8927 368.415 85.9409 368.415 85.995C368.415 86.0477 368.422 86.1003 368.447 86.1424C368.447 86.1424 368.49 86.2071 368.524 86.2296L368.512 86.5019C368.396 86.562 368.242 86.6568 368.1 86.7696C367.946 86.8974 367.803 87.0418 367.735 87.1998C367.673 87.3592 367.658 87.5066 367.665 87.642C367.67 87.7548 367.691 87.8541 367.713 87.9293C367.228 88.212 366.63 88.6091 366.092 89.0709C365.542 89.5356 365.057 90.0681 364.816 90.6396C364.297 91.8565 364.545 93.0537 364.753 93.6824H364.396C364.195 93.6824 364.031 93.8524 364.031 94.0645C364.031 94.272 364.195 94.4465 364.396 94.4465H364.692V95.546V97.9375C364.378 98.0172 364.145 98.315 364.145 98.6625C364.145 98.9197 364.272 99.1468 364.466 99.2792V158.53H359.901V157.351H360.287C361.166 157.351 361.877 156.611 361.877 155.699C361.877 154.797 361.166 154.052 360.287 154.052H359.433C361.031 150.149 365.108 137.954 359.819 125.499C359.254 124.164 358.214 122.917 357.363 121.628V109.051H357.134C357.407 108.919 357.718 108.779 357.718 108.451C357.718 108.062 357.459 107.741 357.115 107.649V105.011V103.802H357.436C357.658 103.802 357.841 103.609 357.841 103.379C357.841 103.149 357.658 102.96 357.436 102.96H357.045C357.272 102.272 357.545 100.953 356.98 99.6115C356.714 98.9874 356.177 98.3948 355.571 97.8773C354.98 97.375 354.319 96.9433 353.786 96.6229C353.808 96.5432 353.837 96.4379 353.841 96.3056C353.848 96.1627 353.829 95.9957 353.754 95.8258C353.684 95.6513 353.532 95.4888 353.356 95.3535C353.202 95.2286 353.031 95.1233 352.907 95.0466L352.893 94.7564C352.929 94.7293 352.955 94.6962 352.977 94.6541C353.002 94.6089 353.013 94.5563 353.013 94.4991C353.013 94.439 352.999 94.3818 352.968 94.3292C352.942 94.2916 352.91 94.254 352.869 94.2239L352.855 93.9742C352.884 93.9517 352.906 93.9246 352.925 93.8945C352.939 93.8569 352.954 93.8118 352.954 93.7697C352.954 93.72 352.935 93.6719 352.917 93.6343C352.898 93.5997 352.874 93.5696 352.845 93.5471L352.83 93.2823L352.742 91.2458C352.739 91.2187 352.715 91.2007 352.694 91.2007C352.694 91.2007 352.65 91.2202 352.65 91.2458L352.563 93.2823L352.548 93.5471C352.548 93.5471 352.493 93.5997 352.476 93.6343C352.45 93.6719 352.435 93.7215 352.435 93.7697C352.435 93.8118 352.45 93.8569 352.471 93.8945C352.486 93.9246 352.505 93.9517 352.529 93.9742L352.518 94.2239C352.482 94.254 352.445 94.2916 352.423 94.3292C352.394 94.3818 352.376 94.439 352.376 94.4991C352.376 94.5563 352.39 94.6089 352.412 94.6541C352.434 94.6962 352.464 94.7293 352.496 94.7564L352.484 95.0466C352.357 95.1218 352.185 95.2286 352.031 95.3535C351.863 95.4888 351.706 95.6513 351.63 95.8258C351.561 95.9957 351.543 96.1627 351.546 96.3056C351.558 96.4379 351.58 96.5432 351.601 96.6229C351.068 96.9448 350.412 97.375 349.816 97.8773C349.215 98.3948 348.678 98.9889 348.407 99.6115C347.842 100.953 348.116 102.272 348.342 102.96H347.882C347.659 102.96 347.476 103.149 347.476 103.379C347.476 103.609 347.659 103.802 347.882 103.802H348.217V104.826C348.214 104.886 348.21 104.947 348.206 105.011L348.217 105.109V105.529V107.645C347.867 107.732 347.604 108.053 347.604 108.45C347.604 108.779 347.911 108.919 348.184 109.05H347.954V111.316C343.594 107.719 338.89 104.578 334.996 102.266C335.186 101.627 335.379 100.774 335.423 99.8026C335.478 98.661 335.336 97.3644 334.784 96.0544C334.207 94.7052 332.999 93.4388 331.681 92.3814C330.458 91.3992 329.142 90.5795 328.166 90.0275L328.065 87.7518C328.331 87.5367 328.554 87.2645 328.714 86.9501C328.9 86.5906 329.006 86.1785 329.006 85.7483C329.006 85.2715 328.878 84.8218 328.659 84.4413C328.466 84.1043 328.203 83.8171 327.885 83.6065L327.8 81.6572C328.001 81.4827 328.165 81.2751 328.29 81.033C328.439 80.7427 328.527 80.4133 328.527 80.0613C328.527 79.6793 328.425 79.3138 328.249 79.007C328.1 78.7498 327.895 78.5302 327.658 78.3602L327.567 76.2816L326.881 60.4585C326.869 60.2585 326.705 60.1035 326.516 60.1111C326.333 60.1186 326.188 60.2705 326.185 60.4585L325.495 76.2816L325.408 78.3557C325.167 78.5257 324.967 78.7483 324.817 79.0025V79.007C324.641 79.3138 324.537 79.6793 324.537 80.0613C324.537 80.4133 324.624 80.7382 324.774 81.033L324.778 81.0375H324.774C324.897 81.2751 325.061 81.4827 325.266 81.6572L325.179 83.6065C324.861 83.8186 324.599 84.1059 324.409 84.4413C324.19 84.8233 324.062 85.273 324.062 85.7483C324.062 86.1785 324.168 86.5906 324.354 86.9501C324.511 87.2645 324.733 87.5322 325 87.7518L324.898 90.0275C323.925 90.5795 322.604 91.3992 321.384 92.3814C320.066 93.4388 318.855 94.7052 318.286 96.0544L318.274 96.0739C317.723 97.378 317.588 98.67 317.642 99.8041C317.69 100.776 317.879 101.63 318.069 102.268C314.843 104.187 311.07 106.758 307.381 109.591V70.1749C307.578 70.0396 307.709 69.8049 307.709 69.5402C307.709 69.1732 307.465 68.8679 307.132 68.7882V66.7968V66.4042L307.144 66.3139C307.137 66.2538 307.137 66.1966 307.132 66.1395V65.1753H307.446C307.658 65.1753 307.825 65.0009 307.825 64.7783C307.825 64.5662 307.657 64.3857 307.446 64.3857H307.019C307.227 63.7389 307.49 62.4995 306.954 61.2421C306.701 60.657 306.198 60.0975 305.629 59.6132C305.074 59.1409 304.457 58.7333 303.954 58.4385C303.976 58.3588 303.999 58.2565 304.01 58.1407C304.013 58.0053 303.995 57.8459 303.93 57.691V57.6864C303.86 57.524 303.715 57.3721 303.554 57.2412C303.407 57.1239 303.247 57.0216 303.131 56.9585L303.116 56.6832C303.15 56.6607 303.174 56.6261 303.198 56.5885C303.219 56.5433 303.23 56.4937 303.23 56.4456C303.23 56.3884 303.218 56.3328 303.189 56.2861C303.167 56.244 303.134 56.2109 303.097 56.1839L303.087 55.9462C303.109 55.9267 303.131 55.9011 303.141 55.874C303.167 55.8364 303.17 55.7988 303.17 55.7567C303.17 55.7071 303.163 55.6664 303.141 55.6288C303.119 55.5988 303.097 55.5687 303.068 55.5491L303.057 55.2994L302.973 53.3878L302.932 53.3456L302.888 53.3878L302.804 55.2994L302.797 55.5491C302.763 55.5687 302.742 55.5988 302.724 55.6288C302.702 55.6664 302.688 55.7086 302.688 55.7567C302.688 55.7988 302.7 55.8364 302.717 55.874C302.717 55.874 302.753 55.9267 302.779 55.9462L302.768 56.1839C302.727 56.2109 302.698 56.244 302.673 56.2861C302.649 56.3313 302.633 56.3884 302.633 56.4456C302.633 56.4952 302.644 56.5433 302.666 56.5885C302.666 56.5885 302.717 56.6607 302.746 56.6832L302.731 56.9585C302.615 57.0231 302.454 57.1254 302.312 57.2412C302.148 57.3736 302.005 57.524 301.933 57.6864C301.867 57.8459 301.848 58.0008 301.856 58.1392C301.863 58.2565 301.885 58.3588 301.906 58.437C301.402 58.7318 300.787 59.1394 300.232 59.6117C299.667 60.096 299.159 60.654 298.91 61.2406C298.374 62.4995 298.633 63.7389 298.845 64.3842H298.48C298.27 64.3842 298.094 64.5662 298.094 64.7767C298.094 64.9994 298.27 65.1738 298.48 65.1738H298.784V66.3109V68.7867C298.458 68.8739 298.219 69.1762 298.219 69.5387C298.219 69.8034 298.347 70.0381 298.547 70.1734V117.626C296.332 120.142 294.416 122.761 293.251 125.494C287.968 137.949 292.04 150.145 293.638 154.048H292.788C291.917 154.048 291.198 154.792 291.198 155.695C291.198 156.606 291.917 157.346 292.788 157.346H293.577V158.525H289.413V132.678H287.318V124.435C287.87 124.028 288.281 123.46 288.281 122.708C288.281 121.642 287.562 120.752 286.602 120.517V114.72V113.576L286.631 113.308C286.62 113.133 286.605 112.963 286.602 112.801V109.997H287.514C288.132 109.997 288.631 109.48 288.631 108.848C288.631 108.216 288.132 107.696 287.514 107.696H286.27C286.883 105.81 287.635 102.202 286.076 98.5316C285.35 96.823 283.879 95.1985 282.219 93.7847C280.602 92.4054 278.8 91.2232 277.336 90.3539C277.398 90.1267 277.468 89.8289 277.485 89.4845C277.504 89.0874 277.452 88.6302 277.263 88.1699L277.259 88.1624C277.058 87.6901 276.631 87.2404 276.168 86.8704C275.738 86.5229 275.273 86.2387 274.931 86.0431L274.894 85.2415C274.989 85.1663 275.066 85.0715 275.124 84.9587C275.186 84.8384 275.222 84.6909 275.222 84.536C275.222 84.3691 275.182 84.2112 275.102 84.0743C275.032 83.9615 274.941 83.8547 274.832 83.784L274.803 83.0966C274.871 83.0365 274.931 82.9612 274.97 82.877C275.025 82.7747 275.054 82.6574 275.054 82.5326C275.054 82.3972 275.022 82.2724 274.96 82.1626C274.909 82.0753 274.832 81.9926 274.752 81.9324L274.718 81.2029L274.477 75.6288C274.47 75.5641 274.427 75.5115 274.361 75.5115C274.293 75.507 274.233 75.5611 274.226 75.6288L273.989 81.2029L273.956 81.9324C273.872 81.9926 273.802 82.0753 273.755 82.1626C273.69 82.2724 273.649 82.3972 273.649 82.5326C273.649 82.6574 273.679 82.7747 273.734 82.877C273.777 82.9597 273.835 83.0365 273.912 83.0966L273.879 83.784C273.766 83.8562 273.671 83.9615 273.606 84.0743C273.529 84.2096 273.482 84.3691 273.482 84.536C273.482 84.6909 273.523 84.8384 273.588 84.9587C273.644 85.0715 273.724 85.1663 273.815 85.2415L273.783 86.0431C273.436 86.2402 272.973 86.5229 272.543 86.8704C272.079 87.2404 271.652 87.6901 271.448 88.1624C271.253 88.6272 271.206 89.0889 271.224 89.4845C271.243 89.8289 271.308 90.1267 271.378 90.3539C269.911 91.2232 268.111 92.4054 266.492 93.7847C264.832 95.1985 263.365 96.823 262.639 98.5316C261.08 102.202 261.828 105.81 262.448 107.696H261.387C260.774 107.696 260.274 108.218 260.274 108.848C260.274 109.48 260.774 109.997 261.387 109.997H262.267V113.308V120.526C261.326 120.776 260.621 121.663 260.621 122.71C260.621 123.462 261.034 124.029 261.581 124.437V132.679H257.315V127.732H256.951C257.385 127.528 257.875 127.305 257.875 126.775C257.875 126.163 257.455 125.646 256.9 125.517V122.171V121.51L256.922 121.355C256.915 121.257 256.907 121.158 256.9 121.064V119.448H257.429C257.786 119.448 258.071 119.153 258.071 118.783C258.071 118.416 257.786 118.121 257.429 118.121H256.71C257.064 117.032 257.494 114.955 256.601 112.839C256.181 111.852 255.334 110.915 254.379 110.106C253.445 109.304 252.405 108.624 251.562 108.122C251.599 107.994 251.638 107.824 251.65 107.622C251.657 107.392 251.628 107.131 251.522 106.863L251.517 106.858C251.404 106.586 251.156 106.329 250.886 106.114C250.637 105.909 250.371 105.747 250.171 105.634L250.156 105.169C250.207 105.132 250.251 105.074 250.287 105.01C250.323 104.938 250.342 104.85 250.342 104.765C250.342 104.67 250.321 104.58 250.273 104.504C250.236 104.437 250.181 104.372 250.116 104.33L250.101 103.937C250.138 103.9 250.169 103.858 250.199 103.809C250.228 103.749 250.242 103.682 250.242 103.612C250.242 103.533 250.228 103.461 250.187 103.397C250.161 103.345 250.114 103.303 250.071 103.265L250.049 102.845L249.914 99.6296C249.91 99.595 249.885 99.5695 249.846 99.5649C249.805 99.5604 249.776 99.592 249.773 99.6296L249.631 102.845L249.612 103.265C249.564 103.303 249.525 103.345 249.496 103.397C249.459 103.462 249.437 103.533 249.437 103.612C249.437 103.68 249.452 103.748 249.485 103.809C249.507 103.859 249.543 103.9 249.584 103.937L249.565 104.33C249.503 104.372 249.449 104.435 249.411 104.504C249.363 104.58 249.339 104.671 249.339 104.765C249.339 104.852 249.365 104.939 249.401 105.01C249.43 105.074 249.474 105.13 249.532 105.169L249.51 105.634C249.313 105.747 249.044 105.909 248.798 106.114C248.533 106.329 248.284 106.586 248.168 106.858C248.055 107.126 248.026 107.391 248.04 107.622C248.047 107.822 248.088 107.992 248.124 108.122C247.282 108.624 246.242 109.304 245.311 110.106C244.351 110.915 243.504 111.852 243.085 112.839C242.19 114.955 242.621 117.033 242.976 118.121H242.363C242.008 118.121 241.724 118.416 241.724 118.783C241.724 119.153 242.008 119.448 242.363 119.448H242.874V121.356V125.521C242.331 125.664 241.925 126.175 241.925 126.775C241.925 127.305 242.411 127.528 242.845 127.732H242.477V132.679H237.529C239.696 126.795 243.372 113.388 237.406 99.3333C234.872 93.362 229.745 87.6976 223.955 82.7582C218.302 77.9406 212.014 73.8164 206.902 70.7781C207.135 69.9959 207.369 68.9416 207.427 67.7428C207.497 66.356 207.329 64.7692 206.65 63.1629L206.639 63.1358C205.939 61.4813 204.446 59.9276 202.829 58.6235C201.326 57.4142 199.709 56.4095 198.508 55.7251L198.385 52.932C198.71 52.6673 198.983 52.3319 199.176 51.9528C199.41 51.5076 199.538 51.0008 199.538 50.4713C199.538 49.8817 199.384 49.3297 199.115 48.8649C198.878 48.4528 198.55 48.1009 198.167 47.8376L198.061 45.4341C198.305 45.2265 198.509 44.9648 198.663 44.679H198.659L198.663 44.6745C198.849 44.3151 198.951 43.9075 198.951 43.4803C198.951 43.0035 198.828 42.5658 198.611 42.1883L198.607 42.1838C198.424 41.8664 198.177 41.5942 197.885 41.3821L197.776 38.8311L196.939 19.6374C198.672 19.6976 200.424 19.4524 202.037 18.4883C203.731 17.479 205.008 16.017 205.814 14.3355C205.138 15.2469 204.281 16.0471 203.259 16.6563C199.125 19.1275 193.834 17.661 191.451 13.3804C189.057 9.09822 190.478 3.62331 194.614 1.14757C195.637 0.535408 196.727 0.165399 197.833 0.017998C196.023 -0.094809 194.154 0.320326 192.469 1.32957C187.892 4.06251 186.324 10.124 188.966 14.8664C190.517 17.652 193.199 19.1937 196.061 19.5757L195.228 38.8341L195.115 41.3881C194.82 41.5957 194.572 41.8679 194.389 42.1898C194.174 42.5673 194.046 43.0095 194.046 43.4818C194.046 43.909 194.152 44.3166 194.338 44.676C194.488 44.9663 194.695 45.228 194.941 45.4356L194.839 47.8391C194.453 48.1039 194.125 48.4558 193.886 48.8664C193.616 49.3312 193.464 49.8832 193.464 50.4728C193.464 51.0023 193.592 51.5076 193.821 51.9543C194.019 52.3319 194.292 52.6688 194.617 52.9335L194.496 55.7266C193.295 56.411 191.676 57.4157 190.175 58.625C188.554 59.9291 187.066 61.4813 186.358 63.1373V63.1418C185.676 64.7512 185.504 66.347 185.574 67.7443C185.632 68.9416 185.862 69.996 186.1 70.7796C180.987 73.8179 174.695 77.9406 169.043 82.7597C163.256 87.6991 158.128 93.3636 155.592 99.3348C149.625 113.392 153.303 126.797 155.474 132.681H150.518V127.734H150.154C150.588 127.529 151.073 127.306 151.073 126.777C151.073 126.165 150.658 125.647 150.106 125.518V122.173V121.511L150.125 121.356C150.113 121.258 150.106 121.159 150.106 121.066V119.449H150.632C150.989 119.449 151.278 119.154 151.278 118.784C151.278 118.417 150.99 118.122 150.632 118.122H149.913C150.27 117.033 150.701 114.956 149.804 112.84C149.384 111.853 148.534 110.916 147.581 110.107C146.648 109.305 145.608 108.626 144.761 108.123C144.804 107.995 144.841 107.825 144.852 107.624C144.864 107.394 144.838 107.132 144.725 106.864V106.86C144.604 106.588 144.36 106.33 144.093 106.115C143.841 105.911 143.574 105.748 143.381 105.635L143.355 105.171C143.41 105.133 143.454 105.076 143.49 105.011C143.523 104.939 143.545 104.852 143.545 104.766C143.545 104.671 143.519 104.581 143.477 104.506C143.441 104.438 143.385 104.374 143.323 104.331L143.301 103.939C143.345 103.901 143.381 103.859 143.407 103.811C143.436 103.751 143.451 103.683 143.451 103.614C143.451 103.534 143.432 103.462 143.393 103.399C143.364 103.346 143.327 103.304 143.276 103.267L143.259 102.847L143.12 99.6311C143.115 99.5965 143.086 99.571 143.05 99.5664C143.014 99.5619 142.977 99.5935 142.973 99.6311L142.835 102.847L142.816 103.267C142.772 103.304 142.725 103.346 142.695 103.399C142.662 103.464 142.637 103.534 142.637 103.614C142.637 103.682 142.659 103.749 142.691 103.811C142.713 103.861 142.746 103.901 142.79 103.939L142.775 104.331C142.706 104.374 142.655 104.437 142.614 104.506C142.571 104.581 142.542 104.673 142.542 104.766C142.542 104.853 142.568 104.941 142.607 105.011C142.637 105.076 142.679 105.132 142.735 105.171L142.716 105.635C142.515 105.748 142.248 105.911 142.001 106.115C141.731 106.33 141.487 106.588 141.366 106.86C141.258 107.128 141.231 107.392 141.239 107.624C141.253 107.824 141.287 107.994 141.33 108.123C140.485 108.626 139.443 109.305 138.51 110.107C137.557 110.916 136.71 111.853 136.29 112.84C135.388 114.956 135.823 117.035 136.181 118.122H135.568C135.218 118.122 134.922 118.417 134.922 118.784C134.922 119.154 135.218 119.449 135.568 119.449H136.075V121.358V125.523C135.532 125.665 135.127 126.177 135.127 126.777C135.127 127.306 135.609 127.529 136.046 127.734H135.682V132.681H131.416V124.438C131.959 124.031 132.376 123.463 132.376 122.711C132.376 121.645 131.65 120.755 130.69 120.52V114.723V113.579L130.726 113.311C130.707 113.136 130.697 112.966 130.69 112.804V110H131.609C132.222 110 132.722 109.483 132.722 108.851C132.722 108.219 132.222 107.699 131.609 107.699H130.357C130.974 105.813 131.727 102.205 130.167 98.5346C129.436 96.826 127.969 95.2016 126.313 93.7877C124.693 92.4085 122.89 91.2262 121.428 90.3569C121.493 90.1298 121.555 89.8319 121.577 89.4875C121.599 89.0904 121.548 88.6332 121.355 88.1729V88.1654C121.15 87.6931 120.723 87.2434 120.257 86.8734C119.83 86.5259 119.367 86.2417 119.024 86.0461L118.987 85.2444C119.079 85.1692 119.156 85.0745 119.214 84.9617C119.279 84.8414 119.316 84.694 119.316 84.539C119.316 84.3721 119.272 84.2142 119.195 84.0773C119.125 83.9645 119.034 83.8577 118.925 83.787L118.896 83.0996C118.966 83.0395 119.024 82.9642 119.067 82.88C119.118 82.7777 119.147 82.6604 119.147 82.5356C119.147 82.4002 119.114 82.2754 119.048 82.1656C118.998 82.0783 118.928 81.9956 118.845 81.9354L118.815 81.206L118.571 75.6318C118.566 75.5671 118.517 75.5145 118.454 75.5145C118.382 75.51 118.324 75.5641 118.324 75.6318L118.08 81.206L118.049 81.9354C117.965 81.9956 117.897 82.0783 117.844 82.1656C117.779 82.2754 117.743 82.4002 117.743 82.5356C117.743 82.6604 117.772 82.7777 117.827 82.88C117.871 82.9627 117.929 83.0395 118.003 83.0996L117.971 83.787C117.857 83.8592 117.766 83.9645 117.701 84.0773C117.624 84.2127 117.58 84.3721 117.58 84.539C117.58 84.694 117.613 84.8414 117.682 84.9617C117.737 85.0745 117.812 85.1692 117.911 85.2444L117.871 86.0461C117.528 86.2432 117.064 86.5259 116.637 86.8734C116.17 87.2434 115.74 87.6931 115.542 88.1654C115.349 88.6302 115.298 89.0919 115.316 89.4875C115.335 89.8319 115.403 90.1298 115.465 90.3569C113.998 91.2262 112.203 92.4085 110.579 93.7877C108.926 95.2016 107.455 96.826 106.726 98.5346C105.172 102.205 105.92 105.813 106.536 107.699H105.477C104.864 107.699 104.36 108.221 104.36 108.851C104.36 109.483 104.864 110 105.477 110H106.36V113.311V120.529C105.416 120.779 104.707 121.666 104.707 122.713C104.707 123.465 105.124 124.032 105.672 124.44V132.682H103.583V158.53H99.8241V157.351H100.21C101.082 157.351 101.802 156.611 101.802 155.699C101.802 154.797 101.083 154.052 100.21 154.052H99.3564C100.951 150.149 105.027 137.954 99.7427 125.499C98.5793 122.763 96.6621 120.147 94.4472 117.631V70.1749C94.6447 70.0396 94.7754 69.8049 94.7754 69.5402C94.7754 69.1732 94.5314 68.8679 94.1988 68.7882V66.7968V66.4042L94.2104 66.3139C94.2032 66.2538 94.2032 66.1966 94.1988 66.1395V65.1753H94.5125C94.7246 65.1753 94.8916 65.0009 94.8916 64.7783C94.8916 64.5662 94.7231 64.3857 94.5125 64.3857H94.0826C94.2947 63.7389 94.5532 62.4995 94.0173 61.2421C93.7689 60.657 93.2649 60.0975 92.6955 59.6132C92.1378 59.1409 91.5205 58.7333 91.0165 58.4385C91.0427 58.3588 91.0645 58.2565 91.0717 58.1407C91.079 58.0053 91.0601 57.8459 90.9904 57.691V57.6864C90.9207 57.524 90.7754 57.3721 90.6186 57.2412C90.4719 57.1239 90.3121 57.0216 90.1916 56.9585L90.177 56.6832C90.2133 56.6607 90.2351 56.6261 90.2613 56.5885C90.2831 56.5433 90.2947 56.4937 90.2947 56.4456C90.2947 56.3884 90.2802 56.3328 90.254 56.2861C90.2322 56.244 90.1988 56.2109 90.1596 56.1839L90.148 55.9462L90.2061 55.874C90.2279 55.8364 90.2322 55.7988 90.2322 55.7567C90.2322 55.7071 90.2279 55.6664 90.2061 55.6288C90.1843 55.5988 90.1596 55.5687 90.1291 55.5491L90.1218 55.2994L90.0376 53.3878L89.994 53.3456C89.9766 53.3411 89.9534 53.3607 89.9534 53.3607L89.8691 55.2994L89.8575 55.5491C89.8284 55.5687 89.8023 55.5988 89.7878 55.6288C89.766 55.6664 89.7515 55.7086 89.7515 55.7567C89.7515 55.7988 89.7631 55.8364 89.7805 55.874L89.843 55.9462L89.8285 56.1839C89.7878 56.2109 89.7616 56.244 89.7326 56.2861C89.7064 56.3313 89.6919 56.3884 89.6919 56.4456C89.6919 56.4952 89.7065 56.5433 89.7282 56.5885C89.7471 56.6261 89.7762 56.6607 89.8081 56.6832L89.7936 56.9585C89.6774 57.0231 89.5162 57.1254 89.3738 57.2412C89.2097 57.3736 89.063 57.524 88.9948 57.6864C88.9294 57.8459 88.9105 58.0008 88.9178 58.1392C88.925 58.2565 88.9468 58.3588 88.9686 58.437C88.4646 58.7318 87.8488 59.1394 87.294 59.6117C86.7246 60.096 86.2206 60.654 85.9722 61.2406C85.4363 62.4995 85.6919 63.7389 85.8996 64.3842H85.5423C85.3303 64.3842 85.156 64.5662 85.156 64.7767C85.156 64.9994 85.3303 65.1738 85.5423 65.1738H85.8415V66.3109V68.7867C85.5162 68.8739 85.2794 69.1762 85.2794 69.5387C85.2794 69.8034 85.4073 70.0381 85.6077 70.1734V109.585C81.9142 106.751 78.1407 104.186 74.9193 102.265C75.1052 101.626 75.2983 100.773 75.3419 99.8011C75.3971 98.6595 75.262 97.3629 74.7072 96.0529C74.1306 94.7037 72.9193 93.4373 71.6019 92.3799C70.3833 91.3977 69.0631 90.578 68.087 90.026L67.9883 87.7503C68.2511 87.5352 68.4734 87.263 68.6346 86.9486C68.8205 86.5891 68.9222 86.177 68.9222 85.7468C68.9222 85.27 68.8016 84.8203 68.5794 84.4398C68.3891 84.1028 68.119 83.8156 67.8053 83.605L67.721 81.6557C67.9214 81.4812 68.0899 81.2737 68.2105 81.0315C68.3644 80.7412 68.4472 80.4118 68.4472 80.0598C68.4472 79.6778 68.3456 79.3123 68.1698 79.0055C68.0202 78.7483 67.8154 78.5287 67.5787 78.3587L67.4872 76.2801L66.8016 60.457C66.7944 60.2569 66.6302 60.102 66.4371 60.1095C66.2512 60.1171 66.1088 60.269 66.1059 60.457L65.4189 76.2801L65.3274 78.3542C65.0863 78.5242 64.8859 78.7468 64.7363 79.001V79.0055C64.5605 79.3123 64.4559 79.6778 64.4559 80.0598C64.4559 80.4118 64.5431 80.7367 64.6971 81.0315V81.036C64.8132 81.2736 64.9846 81.4812 65.1822 81.6557L65.0979 83.605C64.7842 83.8171 64.5184 84.1043 64.3281 84.4398C64.1088 84.8218 63.981 85.2715 63.981 85.7468C63.981 86.177 64.087 86.5891 64.2729 86.9486C64.4342 87.263 64.6564 87.5307 64.9193 87.7503L64.8205 90.026C63.8459 90.578 62.5257 91.3977 61.3056 92.3799C59.9839 93.4373 58.7769 94.7037 58.2032 96.0529L58.196 96.0724C57.6455 97.3765 57.5061 98.6685 57.5613 99.8026C57.6121 100.774 57.798 101.629 57.9883 102.266C54.0987 104.58 49.3913 107.72 45.0297 111.316V109.045H44.8002C45.0733 108.913 45.3797 108.773 45.3797 108.445C45.3797 108.053 45.1168 107.728 44.7668 107.643V105.523V105.103L44.7784 105.005C44.7712 104.941 44.7668 104.88 44.7668 104.823V103.796H45.1023C45.3216 103.796 45.5075 103.606 45.5075 103.376C45.5075 103.146 45.3216 102.957 45.1023 102.957H44.6419C44.8685 102.265 45.1459 100.946 44.5765 99.6085C44.3064 98.9813 43.7704 98.3917 43.1648 97.8743C42.5765 97.372 41.9171 96.9373 41.3797 96.6199C41.4059 96.5402 41.4306 96.4304 41.4349 96.3025C41.4422 96.1597 41.4277 95.9927 41.3536 95.8227C41.2766 95.6453 41.127 95.4858 40.9556 95.3505C40.7988 95.2226 40.6274 95.1158 40.4996 95.0436L40.4879 94.7488C40.5214 94.7217 40.5504 94.6887 40.5722 94.6511C40.594 94.6014 40.6085 94.5488 40.6085 94.4916C40.6085 94.4345 40.594 94.3788 40.5649 94.3247C40.5388 94.2826 40.5068 94.2449 40.4662 94.2149L40.4545 93.9652C40.4807 93.9426 40.4981 93.9156 40.5213 93.8855C40.5359 93.8479 40.5504 93.8058 40.5504 93.7606C40.5504 93.711 40.5315 93.6629 40.5141 93.6283C40.4952 93.5937 40.4662 93.5636 40.4371 93.541L40.4255 93.2733L40.334 91.2368C40.3296 91.2142 40.3151 91.1946 40.3151 91.1946C40.3151 91.1946 40.2454 91.2142 40.2454 91.2368L40.1553 93.2733L40.1437 93.541C40.1103 93.5636 40.0885 93.5937 40.0711 93.6283C40.0493 93.6629 40.0304 93.711 40.0304 93.7606C40.0304 93.8058 40.042 93.8479 40.0638 93.8855C40.0638 93.8855 40.1001 93.9426 40.1292 93.9652L40.1147 94.2149C40.0784 94.2449 40.042 94.2826 40.0159 94.3247C39.9869 94.3773 39.9723 94.4345 39.9723 94.4916C39.9723 94.5488 39.9869 94.6014 40.0086 94.6511C40.0261 94.6887 40.0551 94.7233 40.0914 94.7488L40.0813 95.0436C39.9534 95.1158 39.7821 95.2211 39.6281 95.3505C39.4567 95.4858 39.2999 95.6453 39.2272 95.8227C39.1575 95.9897 39.1401 96.1551 39.1474 96.3025C39.1517 96.4304 39.1764 96.5402 39.1982 96.6199C38.6651 96.9373 38.0086 97.372 37.4131 97.8743C36.8075 98.3917 36.2744 98.9813 36.0087 99.6085C35.4393 100.946 35.7124 102.265 35.9389 102.957H35.5526C35.326 102.957 35.1445 103.146 35.1445 103.376C35.1445 103.606 35.3275 103.796 35.5526 103.796H35.8707V105.005V107.643C35.5308 107.734 35.2723 108.059 35.2723 108.445C35.2723 108.774 35.5787 108.914 35.8518 109.045H35.6179V121.63C34.7712 122.919 33.7312 124.166 33.1662 125.496C27.8823 137.951 31.9578 150.146 33.5569 154.049H32.7029C31.8315 154.049 31.1125 154.794 31.1125 155.696C31.1125 156.608 31.8315 157.348 32.7029 157.348H33.4988V158.527H28.5243V99.2761C28.7174 99.1438 28.8424 98.9167 28.8424 98.6595C28.8424 98.3075 28.6042 98.0052 28.2832 97.93V96.0108V95.6332L28.2948 95.543C28.2904 95.4828 28.2832 95.4302 28.2832 95.373V94.4435H28.5896C28.7944 94.4435 28.9615 94.269 28.9615 94.0615C28.9615 93.8494 28.793 93.6794 28.5896 93.6794H28.1742C28.3819 93.0522 28.6303 91.8534 28.1132 90.6366C27.8721 90.0666 27.3841 89.5326 26.8366 89.0679C26.2992 88.6061 25.6978 88.2105 25.2127 87.9263C25.2389 87.8511 25.2563 87.7518 25.2636 87.639C25.2708 87.5066 25.2563 87.3562 25.191 87.2013V87.1968C25.1227 87.0373 24.9789 86.8945 24.8307 86.7666C24.6884 86.6538 24.5315 86.559 24.4183 86.4989L24.4037 86.2266C24.4371 86.2041 24.4618 86.174 24.4618 86.174C24.5054 86.0988 24.517 86.0461 24.517 85.992C24.517 85.9394 24.5025 85.8897 24.4764 85.8401C24.4546 85.8025 24.4212 85.7679 24.3848 85.7423L24.3732 85.5197C24.3732 85.5197 24.4168 85.4746 24.4284 85.4445C24.4502 85.4144 24.4575 85.3723 24.4575 85.3317C24.4575 85.2896 24.4502 85.2445 24.4284 85.2114C24.4066 85.1813 24.3834 85.1542 24.3587 85.1286L24.3442 84.891L24.2672 83.047L24.2309 83.0049C24.2048 83.0004 24.183 83.0169 24.183 83.047L24.106 84.891L24.0944 85.1286C24.0653 85.1557 24.0392 85.1813 24.0261 85.2114C24.0043 85.246 23.9898 85.2911 23.9898 85.3317C23.9898 85.3738 24 85.4144 24.0188 85.4445C24.0334 85.4746 24.0522 85.4971 24.0522 85.4971L24.0668 85.7423C24.0334 85.7694 23.9971 85.8025 23.9796 85.8401C23.9549 85.8897 23.9361 85.9379 23.9361 85.992C23.9361 86.0446 23.9506 86.0973 23.9724 86.1394C23.9724 86.1394 24.013 86.2041 24.045 86.2266L24.0334 86.4989C23.9201 86.559 23.7632 86.6538 23.6252 86.7666C23.4713 86.8945 23.326 87.0388 23.2636 87.1968C23.1939 87.3562 23.1837 87.5036 23.188 87.639C23.191 87.7518 23.2127 87.8511 23.2389 87.9263C22.7509 88.209 22.1554 88.6061 21.6151 89.0679C21.0646 89.5326 20.5824 90.0651 20.3456 90.6366C19.8242 91.8534 20.0726 93.0507 20.2759 93.6794H19.9259C19.7225 93.6794 19.5541 93.8494 19.5541 94.0615C19.5541 94.269 19.7225 94.4435 19.9259 94.4435H20.2135V95.543V97.9345C19.9041 98.0142 19.6703 98.312 19.6703 98.6595C19.6703 98.9167 19.7981 99.1438 19.9883 99.2761V158.527H12.5548V165.88H0V210H393V165.88H380.436V165.883ZM371.43 96.5462C371.43 96.5462 371.411 96.4409 371.51 96.3041C371.612 96.1762 371.572 96.0664 371.529 95.9295C371.299 95.2602 372.069 95.1324 372.503 94.8C372.747 95.0526 372.665 95.4497 372.5 95.9295C372.452 96.0649 372.412 96.1747 372.515 96.3041C372.614 96.4394 372.599 96.5462 372.599 96.5462V97.9149H371.431V96.5462H371.43ZM367.398 96.5462C367.398 96.5462 367.372 96.4409 367.475 96.3041C367.577 96.1762 367.537 96.0664 367.49 95.9295C367.193 95.0647 368.566 95.1023 368.723 94.445H368.73C368.887 95.1023 370.259 95.0647 369.963 95.9295C369.915 96.0649 369.876 96.1747 369.975 96.3041C370.076 96.4394 370.059 96.5462 370.059 96.5462V97.9149H367.398V96.5462ZM364.868 96.5462C364.868 96.5462 364.846 96.4409 364.945 96.3041C365.049 96.1762 365.01 96.0664 364.967 95.9295C364.802 95.4527 364.715 95.0602 364.952 94.8075C365.391 95.1324 366.156 95.2647 365.927 95.9295C365.879 96.0649 365.84 96.1747 365.938 96.3041C366.044 96.4394 366.023 96.5462 366.023 96.5462V97.9149H364.869V96.5462H364.868ZM355.646 106.114C355.646 106.114 355.625 105.996 355.734 105.849C355.847 105.706 355.799 105.584 355.748 105.441C355.5 104.701 356.342 104.562 356.817 104.198C357.08 104.477 356.99 104.912 356.81 105.441C356.759 105.584 356.715 105.706 356.824 105.849C356.938 105.996 356.916 106.114 356.916 106.114V107.625H355.646V106.114ZM351.202 106.114C351.202 106.114 351.176 105.996 351.289 105.849C351.402 105.706 351.354 105.584 351.304 105.441C350.978 104.485 352.486 104.527 352.665 103.802H352.669C352.845 104.527 354.355 104.486 354.027 105.441C353.976 105.584 353.933 105.706 354.046 105.849C354.155 105.996 354.137 106.114 354.137 106.114V107.625H351.203V106.114H351.202ZM348.407 106.114C348.407 106.114 348.381 105.996 348.492 105.849C348.608 105.706 348.561 105.584 348.513 105.441C348.33 104.912 348.24 104.47 348.509 104.195C348.984 104.557 349.838 104.694 349.585 105.441C349.535 105.584 349.487 105.706 349.6 105.849C349.709 105.996 349.687 106.114 349.687 106.114V107.625H348.406V106.114H348.407ZM282.594 116.345C282.594 116.345 282.531 116.015 282.839 115.615C283.141 115.215 283.018 114.886 282.883 114.486C282.193 112.457 284.525 112.074 285.828 111.077C286.569 111.837 286.307 113.039 285.809 114.486C285.674 114.886 285.554 115.215 285.86 115.615C286.167 116.015 286.101 116.345 286.101 116.345V120.464H282.594V116.345ZM270.427 116.345C270.427 116.345 270.364 116.015 270.671 115.615C270.977 115.215 270.849 114.886 270.711 114.486C269.824 111.87 273.956 111.992 274.434 110H274.448C274.923 111.992 279.057 111.871 278.164 114.486C278.029 114.886 277.901 115.215 278.207 115.615C278.514 116.015 278.451 116.345 278.451 116.345V120.464H270.427V116.345ZM263.07 111.088C264.384 112.077 266.687 112.467 265.997 114.486C265.862 114.886 265.738 115.215 266.045 115.615C266.348 116.015 266.289 116.345 266.289 116.345V120.464H262.811V116.345C262.811 116.345 262.749 116.015 263.055 115.615C263.362 115.215 263.238 114.886 263.099 114.486C262.607 113.049 262.351 111.85 263.07 111.088ZM254.589 123.109C254.589 123.109 254.557 122.919 254.736 122.689C254.907 122.459 254.835 122.269 254.762 122.039C254.357 120.867 255.708 120.645 256.456 120.07C256.885 120.512 256.736 121.2 256.451 122.039C256.367 122.269 256.297 122.459 256.473 122.689C256.649 122.919 256.615 123.109 256.615 123.109V125.485H254.591V123.109H254.589ZM247.575 123.109C247.575 123.109 247.542 122.919 247.718 122.689C247.896 122.459 247.824 122.269 247.744 122.039C247.233 120.527 249.616 120.595 249.889 119.451H249.894C250.171 120.595 252.554 120.527 252.04 122.039C251.959 122.269 251.891 122.459 252.065 122.689C252.236 122.919 252.207 123.109 252.207 123.109V125.485H247.577V123.109H247.575ZM243.189 123.109C243.189 123.109 243.153 122.919 243.327 122.689C243.503 122.459 243.433 122.269 243.356 122.039C243.069 121.207 242.917 120.515 243.334 120.078C244.09 120.645 245.421 120.875 245.024 122.039C244.944 122.269 244.87 122.459 245.05 122.689C245.23 122.919 245.188 123.109 245.188 123.109V125.485H243.188V123.109H243.189ZM147.786 123.109C147.786 123.109 147.753 122.919 147.929 122.689C148.104 122.459 148.035 122.269 147.955 122.039C147.557 120.867 148.903 120.645 149.651 120.07C150.078 120.512 149.933 121.2 149.644 122.039C149.568 122.269 149.494 122.459 149.673 122.689C149.849 122.919 149.811 123.109 149.811 123.109V125.485H147.786V123.109ZM140.777 123.109C140.777 123.109 140.74 122.919 140.915 122.689C141.091 122.459 141.021 122.269 140.941 122.039C140.427 120.527 142.809 120.595 143.083 119.451H143.095C143.372 120.595 145.751 120.527 145.237 122.039C145.157 122.269 145.088 122.459 145.263 122.689C145.442 122.919 145.406 123.109 145.406 123.109V125.485H140.778V123.109H140.777ZM136.383 123.109C136.383 123.109 136.35 122.919 136.521 122.689C136.704 122.459 136.63 122.269 136.55 122.039C136.266 121.207 136.123 120.515 136.536 120.078C137.288 120.645 138.616 120.875 138.222 122.039C138.142 122.269 138.072 122.459 138.248 122.689C138.424 122.919 138.386 123.109 138.386 123.109V125.485H136.383V123.109ZM126.677 116.345C126.677 116.345 126.616 116.015 126.921 115.615C127.224 115.215 127.099 114.886 126.961 114.486C126.271 112.457 128.607 112.074 129.91 111.077C130.648 111.837 130.392 113.039 129.895 114.486C129.76 114.886 129.632 115.215 129.939 115.615C130.245 116.015 130.183 116.345 130.183 116.345V120.464H126.675V116.345H126.677ZM114.51 116.345C114.51 116.345 114.444 116.015 114.751 115.615C115.057 115.215 114.934 114.886 114.799 114.486C113.908 111.87 118.04 111.992 118.514 110H118.531C119.009 111.992 123.14 111.871 122.247 114.486C122.112 114.886 121.988 115.215 122.29 115.615C122.594 116.015 122.539 116.345 122.539 116.345V120.464H114.511V116.345H114.51ZM107.153 111.088C108.463 112.077 110.77 112.467 110.08 114.486C109.945 114.886 109.821 115.215 110.128 115.615C110.434 116.015 110.369 116.345 110.369 116.345V120.464H106.895V116.345C106.895 116.345 106.829 116.015 107.139 115.615C107.445 115.215 107.324 114.886 107.186 114.486C106.69 113.049 106.434 111.85 107.153 111.088ZM43.3086 106.111C43.3086 106.111 43.2824 105.998 43.3957 105.851C43.5046 105.703 43.4611 105.586 43.4102 105.438C43.1546 104.694 44.0086 104.554 44.4865 104.192C44.7566 104.471 44.6622 104.913 44.4792 105.438C44.4327 105.586 44.3877 105.703 44.4981 105.851C44.6114 105.998 44.5853 106.111 44.5853 106.111V107.622H43.3086V106.111ZM38.8612 106.111C38.8612 106.111 38.8394 105.998 38.9527 105.851C39.0617 105.703 39.0181 105.586 38.9643 105.438C38.6434 104.482 40.151 104.524 40.3253 103.799H40.3325C40.5039 104.524 42.0145 104.483 41.6906 105.438C41.6397 105.586 41.5918 105.703 41.7051 105.851C41.8184 105.998 41.7966 106.111 41.7966 106.111V107.622H38.8627V106.111H38.8612ZM36.0798 106.111C36.0798 106.111 36.0537 105.998 36.1713 105.851C36.2803 105.703 36.2338 105.586 36.1829 105.438C36.0043 104.913 35.9099 104.474 36.1757 104.199C36.6535 104.554 37.4974 104.701 37.2461 105.438C37.1938 105.586 37.1474 105.703 37.2606 105.851C37.3696 105.998 37.3521 106.111 37.3521 106.111V107.622H36.0827V106.111H36.0798ZM26.9644 96.5462C26.9644 96.5462 26.9426 96.4409 27.0486 96.3041C27.143 96.1762 27.1067 96.0664 27.0602 95.9295C26.8336 95.2602 27.6034 95.1324 28.0377 94.8C28.2817 95.0526 28.1946 95.4497 28.0334 95.9295C27.9898 96.0649 27.9419 96.1747 28.0479 96.3041C28.1452 96.4394 28.1278 96.5462 28.1278 96.5462V97.9149H26.9644V96.5462ZM22.9252 96.5462C22.9252 96.5462 22.9106 96.4409 23.0094 96.3041C23.1111 96.1762 23.0719 96.0664 23.0239 95.9295C22.7276 95.0647 24.1045 95.1023 24.257 94.445H24.2643C24.4212 95.1023 25.7937 95.0647 25.4945 95.9295C25.4495 96.0649 25.4059 96.1747 25.509 96.3041C25.6151 96.4394 25.5933 96.5462 25.5933 96.5462V97.9149H22.9252V96.5462ZM20.4037 96.5462C20.4037 96.5462 20.382 96.4409 20.4836 96.3041C20.5853 96.1762 20.5461 96.0664 20.4981 95.9295C20.334 95.4527 20.2498 95.0602 20.4865 94.8075C20.9237 95.1324 21.6877 95.2647 21.4568 95.9295C21.4088 96.0649 21.3725 96.1747 21.4713 96.3041C21.5729 96.4394 21.5584 96.5462 21.5584 96.5462V97.9149H20.4023V96.5462H20.4037ZM305.761 67.3533C305.761 67.3533 305.739 67.2404 305.845 67.1036C305.947 66.9682 305.904 66.8539 305.857 66.7185C305.623 66.0191 306.426 65.8913 306.868 65.5468C307.124 65.807 307.036 66.2192 306.864 66.7185C306.82 66.8539 306.776 66.9682 306.883 67.1036C306.984 67.2389 306.967 67.3533 306.967 67.3533V68.7671H305.763V67.3533H305.761ZM301.587 67.3533C301.587 67.3533 301.565 67.2404 301.668 67.1036C301.773 66.9682 301.729 66.8539 301.686 66.7185C301.379 65.8191 302.795 65.8612 302.96 65.1768H302.967C303.128 65.8612 304.547 65.8191 304.241 66.7185C304.193 66.8539 304.153 66.9682 304.255 67.1036C304.361 67.2389 304.339 67.3533 304.339 67.3533V68.7671H301.588V67.3533H301.587ZM298.974 67.3533C298.974 67.3533 298.952 67.2404 299.058 67.1036C299.16 66.9682 299.121 66.8539 299.073 66.7185C298.901 66.2237 298.817 65.8116 299.066 65.5514C299.511 65.8913 300.306 66.0236 300.065 66.7185C300.021 66.8539 299.973 66.9682 300.084 67.1036C300.185 67.2389 300.168 67.3533 300.168 67.3533V68.7671H298.974V67.3533ZM92.8219 67.3533C92.8219 67.3533 92.7958 67.2404 92.9018 67.1036C93.0078 66.9682 92.9642 66.8539 92.9163 66.7185C92.6825 66.0191 93.4813 65.8913 93.9272 65.5468C94.1828 65.807 94.0913 66.2192 93.9229 66.7185C93.8749 66.8539 93.8314 66.9682 93.9374 67.1036C94.0434 67.2389 94.0216 67.3533 94.0216 67.3533V68.7671H92.8219V67.3533ZM88.6433 67.3533C88.6433 67.3533 88.6258 67.2404 88.7275 67.1036C88.8335 66.9682 88.79 66.8539 88.742 66.7185C88.4385 65.8191 89.8546 65.8612 90.0187 65.1768H90.0231C90.1872 65.8612 91.6062 65.8191 91.2998 66.7185C91.2533 66.8539 91.2083 66.9682 91.3143 67.1036C91.416 67.2389 91.3985 67.3533 91.3985 67.3533V68.7671H88.6433V67.3533ZM86.0303 67.3533C86.0303 67.3533 86.0086 67.2404 86.1175 67.1036C86.2192 66.9682 86.1799 66.8539 86.132 66.7185C85.9606 66.2237 85.8735 65.8116 86.1204 65.5514C86.5692 65.8913 87.3608 66.0236 87.1197 66.7185C87.0761 66.8539 87.0325 66.9682 87.1415 67.1036C87.2431 67.2389 87.2213 67.3533 87.2213 67.3533V68.7671H86.0274V67.3533H86.0303Z" fill="#0C222B"/>
</svg>
