<svg width="283" height="252" viewBox="0 0 283 252" fill="none" xmlns="http://www.w3.org/2000/svg">
<g clip-path="url(#clip0_6_505)">
<path opacity="0.1" d="M141.495 230.925C76.5021 230.861 23.8333 183.961 23.7617 126.088C23.8327 68.215 76.5019 21.3151 141.495 21.252C206.487 21.3157 259.156 68.2152 259.227 126.088C259.155 183.961 206.487 230.86 141.495 230.925Z" fill="#F2F2F2"/>
<path opacity="0.2" d="M141.498 206.077C91.9116 206.028 51.7285 170.244 51.6758 126.089C51.7304 81.9361 91.9131 46.1546 141.498 46.1053C191.085 46.1522 231.271 81.9345 231.325 126.089C231.273 170.246 191.087 206.03 141.498 206.077Z" fill="#F2F2F2"/>
<path opacity="0.1" d="M141.497 183.997C105.599 183.961 76.5089 158.055 76.4697 126.089C76.511 94.1252 105.601 68.222 141.497 68.1853C177.396 68.2201 206.487 94.1238 206.529 126.089C206.488 158.056 177.397 183.962 141.497 183.997Z" fill="#F2F2F2"/>
<path opacity="0.1" d="M141.497 251.513C63.7424 251.434 0.733504 195.324 0.648438 126.087C0.737553 56.8528 63.7452 0.747056 141.497 0.667702C219.251 0.74345 282.263 56.8503 282.352 126.087C282.268 195.327 219.254 251.438 141.497 251.513Z" fill="url(#paint0_radial_6_505)"/>
<path d="M148.499 80.09C148.213 79.7089 148.845 79.7713 149.104 79.8135C151.541 80.1743 153.922 80.7866 156.274 81.4503C162.747 83.4027 168.781 86.5046 173.91 90.5373C178.836 94.3951 182.931 99.0964 185.908 104.308C189.006 109.673 190.836 115.593 191.416 121.601C191.643 125.153 191.633 128.738 190.977 132.255C190.883 132.78 190.776 133.304 190.719 133.834L190.659 133.921C188.382 145.251 181.038 155.655 170.697 162.499C165.724 165.812 160.085 168.336 154.117 169.854C143.161 172.709 131.138 172.175 120.543 168.39C108.37 164.097 98.183 155.494 92.7275 144.864C92.717 144.765 92.696 144.57 92.6855 144.472C92.9477 144.541 93.2117 144.626 93.4354 144.773C99.7754 148.761 107.288 151.227 115.004 151.889C123.258 152.656 131.739 151.294 139.207 148.067C144.933 145.606 150.064 142.049 154.175 137.718C161.099 130.479 165.013 120.992 164.955 111.466C165.062 101.445 160.699 91.4791 153.135 84.0946C151.723 82.6421 150.093 81.3754 148.499 80.09Z" fill="white"/>
</g>
<defs>
<radialGradient id="paint0_radial_6_505" cx="0" cy="0" r="1" gradientUnits="userSpaceOnUse" gradientTransform="translate(141.5 126.091) scale(140.852 125.423)">
<stop stop-color="white"/>
<stop offset="1" stop-color="white" stop-opacity="0.01"/>
</radialGradient>
<clipPath id="clip0_6_505">
<rect width="283" height="252" fill="white"/>
</clipPath>
</defs>
</svg>
